<svg xmlns="http://www.w3.org/2000/svg" fill= "#66fcf1" fill-rule= "evenodd" width="2981.78" height="2513.91" viewBox="0 0 2981.78 2513.91">
  <path id="Tobiloba" class="cls-1" d="M2379.35,1997.8q94.4-183.915,195.31-364.99l-2.85,72.84a19.809,19.809,0,0,0,5.29,15.05,20.02,20.02,0,0,0,14.24,6.51q8.955,0.42,14.85-5.29a22.458,22.458,0,0,0,6.72-14.64l6.1-158.29a21,21,0,0,0-4.07-12.82,20.422,20.422,0,0,0-10.98-7.52,19.834,19.834,0,0,0-13.43.61,20.654,20.654,0,0,0-10.17,8.74q-128.595,227.88-247.81,461.02-403.245,9.765-803.63,36.62a20.192,20.192,0,0,0-18.71,21.57,21.222,21.222,0,0,0,6.51,13.63,19.2,19.2,0,0,0,13.83,5.49h1.22q388.59-26.445,780.03-36.21a12532.16,12532.16,0,0,0-802.81,1990.56l39.87,10.99A12518.311,12518.311,0,0,1,2358.19,2038.9q212.4-4.89,424.4-4.88,333.645,0,666.09,12.2a20.94,20.94,0,0,0,14.85-5.49,19.7,19.7,0,0,0,6.31-14.04,20.973,20.973,0,0,0-5.49-14.85,19.736,19.736,0,0,0-14.04-6.31h0q-533.865-19.11-1070.96-7.73h0Zm79.55,900.27q-54.33,14.04-95.42,6.72a131.972,131.972,0,0,0,2.44-20.76,98.9,98.9,0,0,0-10.58-45.57q-10.17-17.895-27.47-26.45-17.295-8.535-33.57-9.36-25.23-1.62-39.47,10.18-30.1,10.17-49.43,38.65t-25.03,54.93q-9.36,51.69,24.82,85.86a72.054,72.054,0,0,0,49.24,18.72,68.687,68.687,0,0,0,12.61-1.22q28.485-4.89,53.31-28.08a146.966,146.966,0,0,0,32.14-43.13q45.57,10.17,107.63-4.07,62.04-14.235,137.73-66.33a18.016,18.016,0,0,0,6.92-11.39,18.61,18.61,0,0,0-2.85-13.43,18.1,18.1,0,0,0-11.39-6.91,18.583,18.583,0,0,0-13.43,2.84h0Q2513.215,2884.045,2458.9,2898.07Zm-177.21,69.38a55.762,55.762,0,0,1-20.34,7.73q-19.545,2.445-32.56-8.55a50.054,50.054,0,0,1-13.63-23.6,59.427,59.427,0,0,1-.61-28.89,120.067,120.067,0,0,1,28.48-53.3q5.295,17.505,21.57,34.18,17.49,18.72,53.3,33.77a112.128,112.128,0,0,1-21.56,27.26h0A85.924,85.924,0,0,1,2281.69,2967.45Zm7.73-97.25q-8.55-8.955-11.8-17.29t-0.41-12.82a1.214,1.214,0,0,1,.41-0.82q1.215-.81,6.51-1.62,5.28-.81,13.84.81,19.11,4.485,26.44,16.68a62.889,62.889,0,0,1,4.68,13.23,50.744,50.744,0,0,1,1.43,14.85,102.038,102.038,0,0,1-.82,12.61h0q-25.635-10.575-40.28-25.63h0Zm421.55-124.92a233.264,233.264,0,0,0-22.79,12.61q205.89-236.4,303.35-398.96,97.44-162.555,69.78-224.41-13.83-26.04-44.76-24.82-39.885,3.66-85.65,65.1-45.78,61.455-99.49,168.05-53.7,106.62-116.37,246.59-43.14,95.2-76.5,162.76-5.295,10.575-10.17,21.16a12.861,12.861,0,0,0-1.63,4.07,590.07,590.07,0,0,0-30.11,78.53q-6.51,12.21-11.8,24.82-1.215,2.445-7.53,14.04t-14.85,27.46c-0.81,1.63-1.63,3.12-2.44,4.48q-8.13,14.64-13.83,25.23t-9.36,17.49c-2.44,4.62-4.41,8.34-5.9,11.19s-2.65,5.02-3.46,6.51a33.952,33.952,0,0,0-1.63,3.26,4.746,4.746,0,0,0-.41,1.42,17.3,17.3,0,0,0,.21,13.02,16.932,16.932,0,0,0,9.15,8.95,21.765,21.765,0,0,0,6.92,1.23q9.765-.42,15.87-10.18a128.6,128.6,0,0,1,6.1-12.41q5.295-9.96,12.62-23.39t14.24-25.64c0.27-.54.54-1.08,0.81-1.63s0.54-1.08.82-1.62q8.535,33.765,34.58,51.27,34.59,21.15,85.04,4.06a192.325,192.325,0,0,0,79.35-55.13,189.01,189.01,0,0,0,42.72-86.47q7.725-39.87-4.06-69.98-17.91-40.7-57.38-49.24h0q-29.7-4.875-61.44,10.58h0Zm101.52-284.63q36.42-77.505,74.67-148.92t72.63-117.8q34.38-46.395,59.2-49.64h1.23q4.875,0,6.91,1.62a8.687,8.687,0,0,1,2.85,4.07c0.54,0.28,1.22,2.92,2.04,7.94s0.47,12.96-1.02,23.8-5.36,25.3-11.6,43.34-16.14,40.28-29.7,66.73-32.15,57.92-55.75,94.4-53.37,78.6-89.31,126.34-79.55,101.73-130.82,161.95q15.045-31.74,30.52-66.33c0.81-1.62,1.48-3.11,2.03-4.47h0Q2776.07,2538.175,2812.49,2460.65Zm-112.51,501.92q-10.17,4.065-25.63,5.69a46.7,46.7,0,0,1-28.89-6.1q-14.655-9.765-19.53-30.93a101.186,101.186,0,0,1-2.85-24.61,106.11,106.11,0,0,1,2.44-23.81q1.62-6.495,3.26-13.43,36.615-62.655,97.25-93.18,21.555-10.155,40.28-7.32,20.745,4.485,30.92,28.08,8.55,20.745,2.85,50.05h0q-19.935,83.82-100.1,115.56h0Zm181.48-13.03q-3.66-4.47-5.08-18.51-1.44-14.04,6.71-41.71,8.13-27.66,32.14-72.83a16.3,16.3,0,0,0,1.63-13.23,17.748,17.748,0,0,0-8.14-10.37,18.042,18.042,0,0,0-13.22-1.43,16.678,16.678,0,0,0-10.38,8.34q-65.085,118.83-32.55,168.87,18.315,27.675,56.56,32.96a127.151,127.151,0,0,0,17.91,1.22q34.98,0,74.46-13.43a453.5,453.5,0,0,0,74.26-32.75q34.785-19.335,56.76-38.46a17.727,17.727,0,0,0,5.9-11.8,16.546,16.546,0,0,0-4.27-12.61,17.77,17.77,0,0,0-11.8-5.9,16.555,16.555,0,0,0-12.62,4.27q-34.17,28.9-91.96,53.92t-104.16,20.95h0q-22.8-2.835-32.15-17.5h0Zm39.47-217.28a17.686,17.686,0,1,0,12.62-5.29h0A17.237,17.237,0,0,0,2920.93,2732.26Zm513.1,138.35a17.491,17.491,0,0,0-19.12-15.06,17.911,17.911,0,0,0-11.8,6.51q-20.355,25.23-55.95,53.91a458,458,0,0,1-75.28,49.44q-39.66,20.76-72.63,22.38-24.4.42-37.03-13.83-26.445-31.74-11.39-114.75,144.855-124.515,231.73-248.82t120.65-218.71q33.765-94.395,18.71-128.17-10.575-20.76-32.95-17.5-46.395,11.4-112.92,92.98t-129.8,194.29Q3182.965,2646,3145.54,2750.57q-64.29,181.89-9.36,245.77,23.19,26.025,61.44,26.04h2.45q41.895-2.04,87.48-25.84a475.774,475.774,0,0,0,84.02-55.74q38.46-31.95,58.8-57.58h0A16.61,16.61,0,0,0,3434.03,2870.61ZM3278.19,2545.9q60.21-106.2,119.22-179.65,58.995-73.44,94.4-85.24,7.335,23.19-23.19,103.35-30.51,80.16-104.78,190.84t-198.36,225.83q5.28-18.72,12.61-39.07h0A1420.3,1420.3,0,0,1,3278.19,2545.9Zm388.79,352.17q-54.315,14.04-95.41,6.72a133.164,133.164,0,0,0,2.44-20.76,98.9,98.9,0,0,0-10.58-45.57q-10.185-17.895-27.47-26.45-17.3-8.535-33.57-9.36-25.23-1.62-39.47,10.18-30.105,10.17-49.43,38.65t-25.03,54.93q-9.36,51.69,24.82,85.86a72.054,72.054,0,0,0,49.24,18.72,68.687,68.687,0,0,0,12.61-1.22q28.485-4.89,53.3-28.08a146.828,146.828,0,0,0,32.15-43.13q45.57,10.17,107.63-4.07,62.04-14.235,137.73-66.33a18.058,18.058,0,0,0,6.92-11.39,18.61,18.61,0,0,0-2.85-13.43,18.1,18.1,0,0,0-11.39-6.91,18.583,18.583,0,0,0-13.43,2.84h0Q3721.305,2884.045,3666.98,2898.07Zm-177.2,69.38a55.743,55.743,0,0,1-20.35,7.73q-19.53,2.445-32.55-8.55a50.054,50.054,0,0,1-13.63-23.6,59.427,59.427,0,0,1-.61-28.89,120.067,120.067,0,0,1,28.48-53.3q5.3,17.505,21.57,34.18,17.49,18.72,53.3,33.77a112.128,112.128,0,0,1-21.56,27.26h0A85.924,85.924,0,0,1,3489.78,2967.45Zm7.73-97.25q-8.55-8.955-11.8-17.29t-0.41-12.82a1.214,1.214,0,0,1,.41-0.82q1.215-.81,6.51-1.62t13.84,0.81q19.11,4.485,26.44,16.68a62.889,62.889,0,0,1,4.68,13.23,51.086,51.086,0,0,1,1.43,14.85,102.038,102.038,0,0,1-.82,12.61h0q-25.635-10.575-40.28-25.63h0Zm421.55-124.92a233.264,233.264,0,0,0-22.79,12.61q205.89-236.4,303.35-398.96,97.44-162.555,69.78-224.41-13.83-26.04-44.76-24.82-39.885,3.66-85.65,65.1t-99.49,168.05q-53.7,106.62-116.37,246.59-43.14,95.2-76.5,162.76-5.3,10.575-10.17,21.16a12.861,12.861,0,0,0-1.63,4.07,588.7,588.7,0,0,0-30.11,78.53q-6.51,12.21-11.8,24.82-1.215,2.445-7.53,14.04-6.3,11.595-14.85,27.46c-0.81,1.63-1.63,3.12-2.44,4.48q-8.13,14.64-13.84,25.23-5.685,10.575-9.35,17.49c-2.45,4.62-4.41,8.34-5.9,11.19s-2.65,5.02-3.46,6.51a33.952,33.952,0,0,0-1.63,3.26,4.746,4.746,0,0,0-.41,1.42,17.3,17.3,0,0,0,.21,13.02,16.932,16.932,0,0,0,9.15,8.95,21.765,21.765,0,0,0,6.92,1.23q9.765-.42,15.87-10.18,0.81-2.43,6.1-12.41,5.295-9.96,12.62-23.39t14.24-25.64c0.26-.54.54-1.08,0.81-1.63l0.81-1.62q8.55,33.765,34.59,51.27,34.575,21.15,85.04,4.06a192.325,192.325,0,0,0,79.35-55.13,189.01,189.01,0,0,0,42.72-86.47q7.725-39.87-4.06-69.98-17.925-40.7-57.38-49.24h0q-29.7-4.875-61.44,10.58h0Zm101.52-284.63q36.42-77.505,74.67-148.92,38.235-71.415,72.63-117.8,34.38-46.395,59.2-49.64h1.22c3.26,0,5.56.54,6.92,1.62a8.687,8.687,0,0,1,2.85,4.07c0.54,0.28,1.22,2.92,2.03,7.94s0.48,12.96-1.01,23.8-5.36,25.3-11.6,43.34-16.14,40.28-29.7,66.73-32.15,57.92-55.75,94.4-53.37,78.6-89.31,126.34-79.55,101.73-130.82,161.95q15.045-31.74,30.52-66.33c0.81-1.62,1.48-3.11,2.03-4.47h0Q3984.16,2538.175,4020.58,2460.65Zm-112.51,501.92q-10.17,4.065-25.63,5.69a46.7,46.7,0,0,1-28.89-6.1q-14.655-9.765-19.53-30.93a101.186,101.186,0,0,1-2.85-24.61,106.11,106.11,0,0,1,2.44-23.81q1.62-6.495,3.26-13.43,36.615-62.655,97.25-93.18,21.555-10.155,40.28-7.32,20.745,4.485,30.92,28.08,8.55,20.745,2.85,50.05h0q-19.935,83.82-100.1,115.56h0Zm431.12-17.91q-63.285,24.825-94.61,4.88-25.23-19.92-4.07-76.9a423.622,423.622,0,0,0,31.74-62.66,17.874,17.874,0,0,0,.41-12.41,16.6,16.6,0,0,0-7.73-9.16q-10.995-26.04-38.66-34.59-26.46-7.32-61.04,8.96-32.955,15.87-66.73,55.13a244.5,244.5,0,0,0-48.82,87.69q-13.44,47.61,6.91,74.46,16.68,19.14,41.51,19.13a65.318,65.318,0,0,0,14.24-1.63q25.635-8.13,43.54-25.23a418.952,418.952,0,0,0,41.5-40.69q2.835,17.505,10.58,28.69,7.725,11.19,16.28,16.88,30.105,21.165,75.88,14.45t95.22-36.42q49.44-29.7,91.35-77.72a18.171,18.171,0,0,0,4.07-12.61,17.784,17.784,0,0,0-18.72-16.07,17.079,17.079,0,0,0-11.8,6.3h0Q4402.46,2919.835,4339.19,2944.66Zm-205.69,1.22q-14.25,13.035-29.71,17.91a20.52,20.52,0,0,1-10.37.61,16.14,16.14,0,0,1-9.57-5.9q-9.36-12.615-.81-43.14,12.21-40.275,40.69-74.05t56.15-47.2q17.1-7.725,28.89-7.73a37.724,37.724,0,0,1,8.14.81,23.682,23.682,0,0,1,10.99,6.71,25.592,25.592,0,0,1,6.51,12.01q-16.695,28.485-25.23,51.67h0a377.571,377.571,0,0,1-75.68,88.3h0Z" transform="translate(-1509 -1527.75)"/>
</svg>
