<svg xmlns="http://www.w3.org/2000/svg" fill= "#66fcf1" fill-rule= "evenodd" width="100" height="70" viewBox="0 0 3586.06 415.87">
  <path id="TOBILOBA" class="cls-1" d="M1434.12,3208V2944h-87.7v264h87.7Zm-226.87-412.85v87.7h139.17v0.02h87.7v-0.02h145.04v-87.7H1207.25Zm661.36,1.37c-113.44,0-205.74,92.3-205.74,205.74S1755.17,3208,1868.61,3208s205.74-92.29,205.74-205.74S1982.06,2796.52,1868.61,2796.52Zm119.86,205.74a119.86,119.86,0,1,1-119.86-119.86A120.006,120.006,0,0,1,1988.47,3002.26Zm298.97,43.53h167.2a37.688,37.688,0,0,1,.92,73.21H2287.44v-73.21Zm268.31-24.48a125.677,125.677,0,0,0-26.36-32.76c-1.5-1.32-3.02-2.6-4.59-3.86,0.62-1,1.22-2.03,1.83-3.05l0.02-.05,0.03-.06,0.08-.15a10.176,10.176,0,0,0,.54-0.96,125.66,125.66,0,0,0,.28-121.93c-0.33-.62-0.68-1.22-1.03-1.82a125.946,125.946,0,0,0-108.84-62.95H2199.74v89.24h87.7v-0.13h140.07a37.684,37.684,0,0,1-2.32,73.32H2199.74V3208h217.97a128.285,128.285,0,0,0,14.22-.8,128.6,128.6,0,0,0,14.23.8,125.511,125.511,0,0,0,109.59-186.69h0Zm141.49-227V3208h87.7V2794.31h-87.7Zm300.19,325.99V2792.13h-87.7V3208h328.61v-87.7H2997.43Zm516.79-323.78c-113.45,0-205.74,92.3-205.74,205.74S3400.77,3208,3514.22,3208s205.74-92.29,205.74-205.74S3627.66,2796.52,3514.22,2796.52Zm119.86,205.74a119.865,119.865,0,1,1-119.86-119.86A120.006,120.006,0,0,1,3634.08,3002.26Zm298.97,43.53h167.2a37.687,37.687,0,0,1,.91,73.21H3933.05v-73.21Zm268.31-24.48a125.919,125.919,0,0,0-26.37-32.76c-1.49-1.32-3.01-2.6-4.58-3.86,0.62-1,1.22-2.03,1.82-3.05l0.02-.05,0.04-.06,0.07-.15a10.29,10.29,0,0,0,.55-0.96,125.694,125.694,0,0,0,.27-121.93c-0.32-.62-0.67-1.22-1.02-1.82a125.958,125.958,0,0,0-108.84-62.95H3845.35v89.24h87.7v-0.13h140.06a37.681,37.681,0,0,1-2.32,73.32H3845.35V3208h217.97a126.869,126.869,0,0,1,28.45,0,125.526,125.526,0,0,0,109.59-186.69h0Zm127.49,162.28-13.5,24.41h110.01l4.7-8.48,89.4-161.55-55.18-99.05Zm450.97,0-174.89-315.98-35.92-64.88-4.07-9.08h-21.07l-4.22,9.12-35.9,64.84-4.41,7.97-0.18.33,55.18,99.04,1.61,2.91,40.34,72.86,82.33,148.8,4.69,8.48h110.01Z" transform="translate(-1207.25 -2792.13)"/>
</svg>
